<svg width="95" height="97" viewBox="0 0 95 97" fill="none" xmlns="http://www.w3.org/2000/svg">
<path d="M35.7695 18C35.7695 17.4033 36.0066 16.831 36.4285 16.409C36.8505 15.9871 37.4228 15.75 38.0195 15.75H56.0195C56.6163 15.75 57.1886 15.9871 57.6105 16.409C58.0325 16.831 58.2695 17.4033 58.2695 18C58.2695 18.5967 58.0325 19.169 57.6105 19.591C57.1886 20.0129 56.6163 20.25 56.0195 20.25H38.0195C37.4228 20.25 36.8505 20.0129 36.4285 19.591C36.0066 19.169 35.7695 18.5967 35.7695 18ZM38.0195 29.25H56.0195C56.6163 29.25 57.1886 29.0129 57.6105 28.591C58.0325 28.169 58.2695 27.5967 58.2695 27C58.2695 26.4033 58.0325 25.831 57.6105 25.409C57.1886 24.9871 56.6163 24.75 56.0195 24.75H38.0195C37.4228 24.75 36.8505 24.9871 36.4285 25.409C36.0066 25.831 35.7695 26.4033 35.7695 27C35.7695 27.5967 36.0066 28.169 36.4285 28.591C36.8505 29.0129 37.4228 29.25 38.0195 29.25ZM47.0195 33.75H38.0195C37.4228 33.75 36.8505 33.9871 36.4285 34.409C36.0066 34.831 35.7695 35.4033 35.7695 36C35.7695 36.5967 36.0066 37.169 36.4285 37.591C36.8505 38.0129 37.4228 38.25 38.0195 38.25H47.0195C47.6163 38.25 48.1886 38.0129 48.6105 37.591C49.0325 37.169 49.2695 36.5967 49.2695 36C49.2695 35.4033 49.0325 34.831 48.6105 34.409C48.1886 33.9871 47.6163 33.75 47.0195 33.75ZM74.0195 4.5V35.0691C74.0214 35.6602 73.9058 36.2459 73.6793 36.792C73.4529 37.338 73.1201 37.8336 72.7005 38.25L58.2695 52.6809C57.8532 53.1006 57.3575 53.4334 56.8115 53.6598C56.2654 53.8862 55.6797 54.0019 55.0886 54H24.5195C23.326 54 22.1814 53.5259 21.3375 52.682C20.4936 51.8381 20.0195 50.6935 20.0195 49.5V4.5C20.0195 3.30653 20.4936 2.16193 21.3375 1.31802C22.1814 0.474106 23.326 0 24.5195 0H69.5195C70.713 0 71.8576 0.474106 72.7015 1.31802C73.5454 2.16193 74.0195 3.30653 74.0195 4.5ZM24.5195 49.5H53.7695V36C53.7695 35.4033 54.0066 34.831 54.4285 34.409C54.8505 33.9871 55.4228 33.75 56.0195 33.75H69.5195V4.5H24.5195V49.5ZM58.2695 38.25V46.3219L66.3386 38.25H58.2695Z" fill="#DEDEDE"/>
<path d="M6.29297 85.3086H1.73438V83.4688H6.29297C7.17578 83.4688 7.89062 83.3282 8.4375 83.0469C8.98438 82.7657 9.38281 82.375 9.63281 81.875C9.89062 81.375 10.0195 80.8047 10.0195 80.1641C10.0195 79.5782 9.89062 79.0274 9.63281 78.5117C9.38281 77.9961 8.98438 77.5821 8.4375 77.2696C7.89062 76.9492 7.17578 76.7891 6.29297 76.7891H2.26172V92H0V74.9375H6.29297C7.58203 74.9375 8.67188 75.1602 9.5625 75.6055C10.4531 76.0508 11.1289 76.668 11.5898 77.4571C12.0508 78.2383 12.2812 79.1328 12.2812 80.1407C12.2812 81.2344 12.0508 82.168 11.5898 82.9414C11.1289 83.7149 10.4531 84.3047 9.5625 84.711C8.67188 85.1094 7.58203 85.3086 6.29297 85.3086Z" fill="#DEDEDE"/>
<path d="M14.0742 85.8008V85.5313C14.0742 84.6172 14.207 83.7696 14.4727 82.9883C14.7383 82.1992 15.1211 81.5157 15.6211 80.9375C16.1211 80.3516 16.7266 79.8985 17.4375 79.5782C18.1484 79.25 18.9453 79.086 19.8281 79.086C20.7188 79.086 21.5195 79.25 22.2305 79.5782C22.9492 79.8985 23.5586 80.3516 24.0586 80.9375C24.5664 81.5157 24.9531 82.1992 25.2188 82.9883C25.4844 83.7696 25.6172 84.6172 25.6172 85.5313V85.8008C25.6172 86.7149 25.4844 87.5625 25.2188 88.3438C24.9531 89.125 24.5664 89.8086 24.0586 90.3946C23.5586 90.9727 22.9531 91.4258 22.2422 91.7539C21.5391 92.0742 20.7422 92.2344 19.8516 92.2344C18.9609 92.2344 18.1602 92.0742 17.4492 91.7539C16.7383 91.4258 16.1289 90.9727 15.6211 90.3946C15.1211 89.8086 14.7383 89.125 14.4727 88.3438C14.207 87.5625 14.0742 86.7149 14.0742 85.8008ZM16.2422 85.5313V85.8008C16.2422 86.4336 16.3164 87.0313 16.4648 87.5938C16.6133 88.1485 16.8359 88.6407 17.1328 89.0703C17.4375 89.5 17.8164 89.8399 18.2695 90.0899C18.7227 90.3321 19.25 90.4532 19.8516 90.4532C20.4453 90.4532 20.9648 90.3321 21.4102 90.0899C21.8633 89.8399 22.2383 89.5 22.5352 89.0703C22.832 88.6407 23.0547 88.1485 23.2031 87.5938C23.3594 87.0313 23.4375 86.4336 23.4375 85.8008V85.5313C23.4375 84.9063 23.3594 84.3164 23.2031 83.7617C23.0547 83.1992 22.8281 82.7032 22.5234 82.2735C22.2266 81.836 21.8516 81.4922 21.3984 81.2422C20.9531 80.9922 20.4297 80.8672 19.8281 80.8672C19.2344 80.8672 18.7109 80.9922 18.2578 81.2422C17.8125 81.4922 17.4375 81.836 17.1328 82.2735C16.8359 82.7032 16.6133 83.1992 16.4648 83.7617C16.3164 84.3164 16.2422 84.9063 16.2422 85.5313Z" fill="#DEDEDE"/>
<path d="M35.7188 88.6367C35.7188 88.3242 35.6484 88.0352 35.5078 87.7696C35.375 87.4961 35.0977 87.25 34.6758 87.0313C34.2617 86.8047 33.6367 86.6094 32.8008 86.4453C32.0977 86.2969 31.4609 86.1211 30.8906 85.918C30.3281 85.7149 29.8477 85.4688 29.4492 85.1797C29.0586 84.8907 28.7578 84.5508 28.5469 84.1602C28.3359 83.7696 28.2305 83.3125 28.2305 82.7891C28.2305 82.2891 28.3398 81.8164 28.5586 81.3711C28.7852 80.9258 29.1016 80.5313 29.5078 80.1875C29.9219 79.8438 30.418 79.5742 30.9961 79.3789C31.5742 79.1836 32.2188 79.086 32.9297 79.086C33.9453 79.086 34.8125 79.2657 35.5312 79.625C36.25 79.9844 36.8008 80.4649 37.1836 81.0664C37.5664 81.6602 37.7578 82.3203 37.7578 83.0469H35.5898C35.5898 82.6953 35.4844 82.3555 35.2734 82.0274C35.0703 81.6914 34.7695 81.4141 34.3711 81.1953C33.9805 80.9766 33.5 80.8672 32.9297 80.8672C32.3281 80.8672 31.8398 80.961 31.4648 81.1485C31.0977 81.3282 30.8281 81.5586 30.6562 81.8399C30.4922 82.1211 30.4102 82.418 30.4102 82.7305C30.4102 82.9649 30.4492 83.1758 30.5273 83.3633C30.6133 83.543 30.7617 83.711 30.9727 83.8672C31.1836 84.0157 31.4805 84.1563 31.8633 84.2891C32.2461 84.4219 32.7344 84.5547 33.3281 84.6875C34.3672 84.9219 35.2227 85.2032 35.8945 85.5313C36.5664 85.8594 37.0664 86.2617 37.3945 86.7383C37.7227 87.2149 37.8867 87.793 37.8867 88.4727C37.8867 89.0274 37.7695 89.5352 37.5352 89.9961C37.3086 90.4571 36.9766 90.8555 36.5391 91.1914C36.1094 91.5196 35.5938 91.7774 34.9922 91.9649C34.3984 92.1446 33.7305 92.2344 32.9883 92.2344C31.8711 92.2344 30.9258 92.0352 30.1523 91.6367C29.3789 91.2383 28.793 90.7227 28.3945 90.0899C27.9961 89.4571 27.7969 88.7891 27.7969 88.086H29.9766C30.0078 88.6797 30.1797 89.1524 30.4922 89.5039C30.8047 89.8477 31.1875 90.0938 31.6406 90.2422C32.0938 90.3828 32.543 90.4532 32.9883 90.4532C33.582 90.4532 34.0781 90.375 34.4766 90.2188C34.8828 90.0625 35.1914 89.8477 35.4023 89.5742C35.6133 89.3008 35.7188 88.9883 35.7188 88.6367Z" fill="#DEDEDE"/>
<path d="M46.043 79.3203V80.9844H39.1875V79.3203H46.043ZM41.5078 76.2383H43.6758V88.8594C43.6758 89.2891 43.7422 89.6133 43.875 89.8321C44.0078 90.0508 44.1797 90.1953 44.3906 90.2657C44.6016 90.336 44.8281 90.3711 45.0703 90.3711C45.25 90.3711 45.4375 90.3555 45.6328 90.3242C45.8359 90.2852 45.9883 90.2539 46.0898 90.2305L46.1016 92C45.9297 92.0547 45.7031 92.1055 45.4219 92.1524C45.1484 92.2071 44.8164 92.2344 44.4258 92.2344C43.8945 92.2344 43.4062 92.1289 42.9609 91.918C42.5156 91.7071 42.1602 91.3555 41.8945 90.8633C41.6367 90.3633 41.5078 89.6914 41.5078 88.8477V76.2383Z" fill="#DEDEDE"/>
<path d="M61.1836 76.4492L55.5352 92H53.2266L59.7305 74.9375H61.2188L61.1836 76.4492ZM65.918 92L60.2578 76.4492L60.2227 74.9375H61.7109L68.2383 92H65.918ZM65.625 85.6836V87.5352H56.0391V85.6836H65.625Z" fill="#DEDEDE"/>
<path d="M72.3633 81.7578V96.875H70.1836V79.3203H72.1758L72.3633 81.7578ZM80.9062 85.5547V85.8008C80.9062 86.7227 80.7969 87.5782 80.5781 88.3672C80.3594 89.1485 80.0391 89.8282 79.6172 90.4063C79.2031 90.9844 78.6914 91.4336 78.082 91.7539C77.4727 92.0742 76.7734 92.2344 75.9844 92.2344C75.1797 92.2344 74.4688 92.1016 73.8516 91.836C73.2344 91.5703 72.7109 91.1836 72.2812 90.6758C71.8516 90.168 71.5078 89.5586 71.25 88.8477C71 88.1367 70.8281 87.336 70.7344 86.4453V85.1328C70.8281 84.1953 71.0039 83.3555 71.2617 82.6133C71.5195 81.8711 71.8594 81.2383 72.2812 80.7149C72.7109 80.1836 73.2305 79.7813 73.8398 79.5078C74.4492 79.2266 75.1523 79.086 75.9492 79.086C76.7461 79.086 77.4531 79.2422 78.0703 79.5547C78.6875 79.8594 79.207 80.2969 79.6289 80.8672C80.0508 81.4375 80.3672 82.1211 80.5781 82.918C80.7969 83.7071 80.9062 84.586 80.9062 85.5547ZM78.7266 85.8008V85.5547C78.7266 84.9219 78.6602 84.3282 78.5273 83.7735C78.3945 83.211 78.1875 82.7188 77.9062 82.2969C77.6328 81.8672 77.2812 81.5313 76.8516 81.2891C76.4219 81.0391 75.9102 80.9141 75.3164 80.9141C74.7695 80.9141 74.293 81.0078 73.8867 81.1953C73.4883 81.3828 73.1484 81.6367 72.8672 81.9571C72.5859 82.2696 72.3555 82.6289 72.1758 83.0352C72.0039 83.4336 71.875 83.8477 71.7891 84.2774V87.3125C71.9453 87.8594 72.1641 88.375 72.4453 88.8594C72.7266 89.336 73.1016 89.7227 73.5703 90.0196C74.0391 90.3086 74.6289 90.4532 75.3398 90.4532C75.9258 90.4532 76.4297 90.3321 76.8516 90.0899C77.2812 89.8399 77.6328 89.5 77.9062 89.0703C78.1875 88.6407 78.3945 88.1485 78.5273 87.5938C78.6602 87.0313 78.7266 86.4336 78.7266 85.8008Z" fill="#DEDEDE"/>
<path d="M85.8398 81.7578V96.875H83.6602V79.3203H85.6523L85.8398 81.7578ZM94.3828 85.5547V85.8008C94.3828 86.7227 94.2734 87.5782 94.0547 88.3672C93.8359 89.1485 93.5156 89.8282 93.0938 90.4063C92.6797 90.9844 92.168 91.4336 91.5586 91.7539C90.9492 92.0742 90.25 92.2344 89.4609 92.2344C88.6562 92.2344 87.9453 92.1016 87.3281 91.836C86.7109 91.5703 86.1875 91.1836 85.7578 90.6758C85.3281 90.168 84.9844 89.5586 84.7266 88.8477C84.4766 88.1367 84.3047 87.336 84.2109 86.4453V85.1328C84.3047 84.1953 84.4805 83.3555 84.7383 82.6133C84.9961 81.8711 85.3359 81.2383 85.7578 80.7149C86.1875 80.1836 86.707 79.7813 87.3164 79.5078C87.9258 79.2266 88.6289 79.086 89.4258 79.086C90.2227 79.086 90.9297 79.2422 91.5469 79.5547C92.1641 79.8594 92.6836 80.2969 93.1055 80.8672C93.5273 81.4375 93.8438 82.1211 94.0547 82.918C94.2734 83.7071 94.3828 84.586 94.3828 85.5547ZM92.2031 85.8008V85.5547C92.2031 84.9219 92.1367 84.3282 92.0039 83.7735C91.8711 83.211 91.6641 82.7188 91.3828 82.2969C91.1094 81.8672 90.7578 81.5313 90.3281 81.2891C89.8984 81.0391 89.3867 80.9141 88.793 80.9141C88.2461 80.9141 87.7695 81.0078 87.3633 81.1953C86.9648 81.3828 86.625 81.6367 86.3438 81.9571C86.0625 82.2696 85.832 82.6289 85.6523 83.0352C85.4805 83.4336 85.3516 83.8477 85.2656 84.2774V87.3125C85.4219 87.8594 85.6406 88.375 85.9219 88.8594C86.2031 89.336 86.5781 89.7227 87.0469 90.0196C87.5156 90.3086 88.1055 90.4532 88.8164 90.4532C89.4023 90.4532 89.9062 90.3321 90.3281 90.0899C90.7578 89.8399 91.1094 89.5 91.3828 89.0703C91.6641 88.6407 91.8711 88.1485 92.0039 87.5938C92.1367 87.0313 92.2031 86.4336 92.2031 85.8008Z" fill="#DEDEDE"/>
</svg>
